<?xml version="1.0" encoding="iso-8859-1"?>
<!-- Generator: Adobe Illustrator 19.0.0, SVG Export Plug-In . SVG Version: 6.00 Build 0)  -->
<svg version="1.1" id="Capa_1" xmlns="http://www.w3.org/2000/svg" xmlns:xlink="http://www.w3.org/1999/xlink" x="0px" y="0px"
	 viewBox="0 0 512 512" style="enable-background:new 0 0 512 512;" xml:space="preserve">
<path style="fill:#FFFFFF;" d="M376.246,348.175L71.861,72.779c4.687,197.531,114.011,355.556,248.272,355.556
	c70.561,0,134.202-43.712,179.437-113.794L376.246,348.175z"/>
<path style="fill:#ABFFDB;" d="M357.04,412.303c-114.116,0-209.318-124.993-232.173-291.567L71.861,72.779
	c4.687,197.531,114.011,355.556,248.272,355.556c32.335,0,63.185-9.272,91.509-25.962
	C394.105,408.793,375.844,412.303,357.04,412.303z"/>
<g>
	<polygon style="fill:#FFC850;" points="223.74,203.886 68.141,419.997 119.733,403.213 245.934,227.935 	"/>
	<path style="fill:#FFC850;" d="M503.988,312.093c-2.219-8.572-10.979-13.695-19.539-11.507l-464.93,120.24
		c-8.572,2.219-13.723,10.963-11.507,19.539c1.871,7.225,8.38,12.02,15.511,12.02c1.331,0,2.681-0.168,4.028-0.513l464.93-120.24
		C501.053,329.414,506.204,320.67,503.988,312.093z"/>
	<path style="fill:#FFC850;" d="M491.174,424.432L90.372,63.71c-6.576-5.91-16.705-5.394-22.643,1.194
		c-5.922,6.579-5.39,16.717,1.194,22.643l400.802,360.721c3.065,2.755,6.897,4.114,10.72,4.114c4.384,0,8.756-1.789,11.922-5.307
		C498.29,440.495,497.757,430.358,491.174,424.432z"/>
</g>
<path style="fill:#474D54;" d="M492.166,339.461l2.195-0.568c12.557-3.251,20.134-16.115,16.888-28.68
	c-3.243-12.524-16.096-20.103-28.677-16.888l-97.767,25.284L95.386,58.132c-9.642-8.665-24.547-7.881-33.231,1.754
	c-8.68,9.644-7.895,24.553,1.751,33.235l1.077,0.969c4.629,83.185,28.643,162.24,67.767,223.336l-58.721,81.557l-56.39,14.583
	c-12.557,3.251-20.134,16.115-16.888,28.68c2.689,10.386,12.053,17.64,22.772,17.64c1.968,0,3.948-0.251,5.905-0.752l194.629-50.335
	c30.503,17.923,62.807,27.035,96.071,27.035c32.937,0,64.924-8.908,95.152-26.475l49.43,44.486
	c4.329,3.893,9.917,6.037,15.735,6.037c6.664,0,13.042-2.84,17.497-7.79c8.68-9.644,7.895-24.552-1.751-33.235l-42.072-37.864
	C467.633,368.919,480.403,354.979,492.166,339.461z M486.307,307.852c4.567-1.168,9.244,1.577,10.419,6.116
	c1.177,4.557-1.571,9.224-6.124,10.402l-77.209,19.967l-15.216-13.694L486.307,307.852z M214.893,229.01l12.757,11.482
	L122.577,386.427l-25.836,6.682L214.893,229.01z M162.321,356.9c4.744,5.4,9.629,10.564,14.623,15.467l-31.653,8.186L162.321,356.9z
	 M194.07,367.937c-7.854-7.177-15.484-15.061-22.751-23.536l67.547-93.815l91.287,82.158L194.07,367.937z M320.129,420.833
	c-25.615,0-50.669-5.902-74.699-17.562l68.565-17.732c4.01-1.037,6.42-5.128,5.383-9.139c-1.038-4.01-5.13-6.42-9.139-5.383
	l-284.547,73.59c-0.724,0.185-1.454,0.279-2.169,0.279c-3.882,0-7.275-2.631-8.25-6.396c-1.177-4.557,1.571-9.223,6.124-10.402
	l322.128-83.309l15.217,13.695l-16.446,4.253c-4.01,1.037-6.42,5.128-5.383,9.139c0.874,3.38,3.919,5.624,7.256,5.624
	c0.622,0,1.254-0.078,1.883-0.241l26.063-6.74l31.392,28.253C376.854,413.397,348.853,420.833,320.129,420.833z M486.793,442.057
	c-1.615,1.795-3.929,2.825-6.347,2.825c-2.108,0-4.134-0.778-5.703-2.189l-350-314.999c-3.079-2.771-7.821-2.521-10.592,0.557
	c-2.771,3.079-2.521,7.821,0.558,10.592l88.969,80.072l-61.467,85.371C108.673,249.85,87.249,181.26,81.036,108.536l9.634,8.67
	c3.078,2.771,7.821,2.521,10.592-0.557c2.771-3.079,2.521-7.821-0.558-10.592L73.941,81.971c-3.498-3.148-3.784-8.555-0.641-12.047
	c3.151-3.496,8.561-3.781,12.055-0.641l400.801,360.723C489.655,433.155,489.94,438.561,486.793,442.057z M442.898,370.893
	l-16.132-14.519l40.973-10.597C459.813,354.907,451.508,363.306,442.898,370.893z"/>
<g>
</g>
<g>
</g>
<g>
</g>
<g>
</g>
<g>
</g>
<g>
</g>
<g>
</g>
<g>
</g>
<g>
</g>
<g>
</g>
<g>
</g>
<g>
</g>
<g>
</g>
<g>
</g>
<g>
</g>
</svg>
